<?xml version="1.0" encoding="utf-8"?>
<svg viewBox="0 0 500 500" xmlns="http://www.w3.org/2000/svg">
  <path d="M 171.35 164.436 C 184.67 162.27 265.1 162.717 291.285 164.436 C 306.793 165.454 319.282 167.144 323.294 169.298 C 324.897 170.158 324.301 170.621 324.915 172.134 C 326.025 174.87 329.428 182.023 328.967 185.911 C 328.568 189.275 325.929 192.447 323.7 194.42 C 321.663 196.221 319.976 196.996 316.406 197.661 C 310.686 198.727 295.986 198.526 290.474 197.661 C 287.224 197.151 288.648 195.84 283.991 195.23 C 269.822 193.374 188.355 198.879 172.16 195.23 C 165.726 193.78 164.936 191.851 162.841 189.152 C 160.813 186.541 159.529 182.777 159.599 179.428 C 159.673 175.9 162.161 170.418 163.651 168.488 C 164.546 167.327 165.373 167.461 166.487 166.867 C 167.854 166.138 167.485 165.064 171.35 164.436 Z M 256.876 218.196 C 270.3 216.831 276.51 217.501 286.049 218.196 C 295.412 218.877 305.402 220.318 313.602 222.248 C 320.855 223.955 328.163 226.125 333.051 228.731 C 336.853 230.758 339.737 232.705 341.559 235.619 C 343.373 238.518 344.431 242.745 343.991 246.154 C 343.541 249.638 341.714 254.045 338.723 256.283 C 335.393 258.776 329.256 259.894 324.136 259.525 C 318.505 259.119 313.994 254.707 306.308 253.042 C 295.794 250.763 281.072 248.016 264.979 248.99 C 244.837 250.21 210.435 261.686 193.666 263.577 C 182.998 264.779 175.753 265.021 170.166 263.577 C 166.195 262.55 163.61 261.051 161.657 258.309 C 159.464 255.231 157.912 249.28 158.415 245.343 C 158.891 241.622 158.728 238.312 164.088 235.214 C 176.478 228.052 235.408 220.378 256.876 218.196 Z M 278.363 286.685 C 292.858 286.173 308.047 284.54 316.451 286.685 C 321.905 288.077 325.16 290.285 327.391 293.573 C 329.64 296.887 330.623 302.645 329.822 306.539 C 329.044 310.319 325.862 314.591 322.934 316.669 C 320.231 318.586 317.604 318.758 313.209 319.1 C 306.619 319.613 296.929 317.437 285.656 317.479 C 270.696 317.534 245.396 318.053 229.741 320.721 C 216.942 322.901 206.363 328.637 197.326 330.445 C 190.321 331.847 184.533 332.921 179.498 332.066 C 175.186 331.333 171.06 329.498 168.558 326.798 C 166.127 324.177 164.388 319.874 164.506 316.264 C 164.63 312.457 165.222 307.968 169.773 304.513 C 177.636 298.543 201.009 293.721 218.395 290.737 C 237.03 287.539 260.966 287.299 278.363 286.685 Z" style="fill: rgb(252, 113, 56); stroke: rgb(163, 231, 217); stroke-width: 2px;"/>
</svg>