<?xml version="1.0" encoding="utf-8"?>
<svg version="1.1" x="0px" y="0px" viewBox="0 0 795.48 508.453" style="enable-background:new 0 0 450 450;" xmlns="http://www.w3.org/2000/svg" xmlns:bx="https://boxy-svg.com">
  <defs>
    <bx:guide x="724.743" y="341.87" angle="0"/>
    <bx:guide x="684.0544577060098" y="354.47541024800563" angle="0"/>
    <bx:guide x="732.7445703684607" y="337.1747937427921" angle="0"/>
    <bx:guide x="764.566" y="337.225" angle="0"/>
  </defs>
  <g transform="matrix(1, 0, 0, 1, 327, 0)">
    <path d="M242.3,230.7c-1.5,0-3.1-0.6-4.2-1.8l-64-64c-2.3-2.3-2.3-6.1,0-8.5s6.1-2.3,8.5,0l64,64c2.3,2.3,2.3,6.1,0,8.5   C245.4,230.2,243.8,230.7,242.3,230.7z" style="fill: rgb(62, 58, 44);"/>
    <path d="M221.8,274.8c-1.5,0-3.1-0.6-4.2-1.8L130,185.5c-2.3-2.3-2.3-6.1,0-8.5s6.1-2.3,8.5,0l87.6,87.6c2.3,2.3,2.3,6.1,0,8.5   C224.9,274.2,223.3,274.8,221.8,274.8z" style="fill: rgb(62, 58, 44);"/>
    <path d="M177.8,295.3c-1.5,0-3.1-0.6-4.2-1.8l-64-64c-2.3-2.3-2.3-6.1,0-8.5s6.1-2.3,8.5,0l64,64c2.3,2.3,2.3,6.1,0,8.5   C180.8,294.7,179.3,295.3,177.8,295.3z" style="fill: rgb(62, 58, 44);"/>
    <path d="M91,353.6c-1.5,0-3.1-0.6-4.2-1.8l-35.6-35.6c-2.3-2.3-2.3-6.1,0-8.5c2.3-2.3,6.1-2.3,8.5,0l35.6,35.6   c2.3,2.3,2.3,6.1,0,8.5C94,353,92.5,353.6,91,353.6z" style="fill: rgb(62, 58, 44);"/>
    <path d="M83.3,381.5c-1.5,0-3.1-0.6-4.2-1.8L23.3,324c-2.3-2.3-2.3-6.1,0-8.5c2.3-2.3,6.1-2.3,8.5,0l55.8,55.8   c2.3,2.3,2.3,6.1,0,8.5C86.4,380.9,84.8,381.5,83.3,381.5z" style="fill: rgb(62, 58, 44);"/>
    <path d="M113.5,318.1H91c-3.3,0-6-2.7-6-6s2.7-6,6-6l83,0c46.9,0,85.1-38.2,85.1-85.1l0-60.5c0-3.3,2.7-6,6-6c0,0,0,0,0,0   c3.3,0,6,2.7,6,6l0,60.5c0,53.5-43.6,97.1-97.1,97.1L113.5,318.1z" style="fill: rgb(62, 58, 44);"/>
    <path d="M328.5,136.3c-1.5,0-3.1-0.6-4.2-1.8l-55.8-55.8c-2.3-2.3-2.3-6.1,0-8.5c2.3-2.3,6.1-2.3,8.5,0l55.8,55.8   c2.3,2.3,2.3,6.1,0,8.5C331.6,135.7,330.1,136.3,328.5,136.3z" style="fill: rgb(62, 58, 44);"/>
    <path d="M300.6,143.9c-1.5,0-3.1-0.6-4.2-1.8l-35.6-35.6c-2.3-2.3-2.3-6.1,0-8.5c2.3-2.3,6.1-2.3,8.5,0l35.6,35.6   c2.3,2.3,2.3,6.1,0,8.5C303.7,143.4,302.2,143.9,300.6,143.9z" style="fill: rgb(62, 58, 44);"/>
    <path d="M91,295.5c-3.3,0-6-2.7-6-6V229c0-25.9,10.1-50.3,28.4-68.6c18.3-18.3,42.7-28.4,68.7-28.4h83c3.3,0,6,2.7,6,6   c0,3.3-2.7,6-6,6h-83c-22.7,0-44.1,8.9-60.2,24.9C105.8,184.9,97,206.3,97,229v60.5C97,292.8,94.3,295.5,91,295.5z" style="fill: rgb(62, 58, 44);"/>
    <path d="M171.7,295.5h-58.2c-3.3,0-6-2.7-6-6v-58.2c0-42.4,34.5-76.8,76.8-76.8h58.2c3.3,0,6,2.7,6,6v58.2   C248.5,261.1,214.1,295.5,171.7,295.5z M119.5,283.5h52.2c35.7,0,64.8-29.1,64.8-64.8v-52.2h-52.2c-35.7,0-64.8,29.1-64.8,64.8   V283.5z" style="fill: rgb(62, 58, 44);"/>
    <path d="M303,166.5h-60.5c-3.3,0-6-2.7-6-6s2.7-6,6-6H303c12.4,0,24.3-3.6,34.6-10.4c1.4-0.9,2.2-2.3,2.4-4c0.1-0.9,0-2.7-1.5-4.2   c-1.8-1.8-4.6-2-6.6-0.6c-8.5,5.7-18.5,8.7-28.8,8.7c0,0,0,0,0,0h-38c-3.3,0-6-2.7-6-6v-38c0-10.3,3-20.3,8.7-28.8   c1.4-2.1,1.1-4.9-0.6-6.7c-1.5-1.5-3.3-1.6-4.2-1.5c-1.6,0.2-3,1-4,2.4c-6.8,10.3-10.4,22.2-10.4,34.6v38c0,3.3-2.7,6-6,6   s-6-2.7-6-6v-38c0-14.7,4.3-29,12.4-41.2c2.9-4.4,7.6-7.2,12.8-7.7c5.2-0.5,10.2,1.3,13.9,5c5.8,5.8,6.7,15,2.1,21.8   c-4.4,6.5-6.7,14.2-6.7,22.1v32h32c0,0,0,0,0,0c7.9,0,15.6-2.3,22.1-6.7c6.8-4.6,16-3.7,21.8,2.1c3.7,3.7,5.5,8.7,5,13.9   c-0.5,5.2-3.3,9.9-7.7,12.8C332,162.2,317.8,166.5,303,166.5z" style="fill: rgb(62, 58, 44);"/>
    <path d="M92.6,399c-4.5,0-8.9-1.8-12.2-5c-5.8-5.8-6.7-15-2.1-21.8C82.7,365.6,85,358,85,350v-32H53c0,0,0,0,0,0   c-7.9,0-15.6,2.3-22.1,6.7c-6.8,4.6-16,3.7-21.8-2.1c-3.7-3.7-5.5-8.7-5-13.9c0.5-5.2,3.3-9.9,7.7-12.8   c12.2-8.1,26.5-12.4,41.2-12.4h60.5c3.3,0,6,2.7,6,6s-2.7,6-6,6H53c-12.4,0-24.3,3.6-34.6,10.4c-1.4,0.9-2.2,2.3-2.4,4   c-0.1,0.9,0,2.7,1.5,4.2c1.8,1.8,4.6,2,6.7,0.6c8.5-5.7,18.5-8.7,28.8-8.7c0,0,0,0,0,0h38c3.3,0,6,2.7,6,6v38   c0,10.3-3,20.3-8.7,28.8c-1.4,2.1-1.1,4.9,0.6,6.7c1.5,1.5,3.3,1.6,4.2,1.5c1.6-0.2,3-1,4-2.4c6.8-10.2,10.4-22.2,10.4-34.6v-38   c0-3.3,2.7-6,6-6s6,2.7,6,6v38c0,14.7-4.3,29-12.4,41.2c-2.9,4.4-7.6,7.2-12.8,7.7C93.7,399,93.2,399,92.6,399z" style="fill: rgb(62, 58, 44);"/>
    <g>
      <path d="M360.4,246.1c-3.1,0-5.7-2.3-6-5.4l-1.9-20.3c-0.3-3.3,2.1-6.2,5.4-6.5c3.3-0.3,6.2,2.1,6.5,5.4l1.9,20.3    c0.3,3.3-2.1,6.2-5.4,6.5C360.8,246.1,360.6,246.1,360.4,246.1z" style="fill: rgb(163, 231, 217);"/>
      <path d="M411.1,282.6c-0.3,0-0.7,0-1-0.1l-20.1-3.5c-3.3-0.6-5.5-3.7-4.9-6.9c0.6-3.3,3.7-5.5,6.9-4.9l20.1,3.5    c3.3,0.6,5.5,3.7,4.9,6.9C416.5,280.6,414,282.6,411.1,282.6z" style="fill: rgb(163, 231, 217);"/>
      <path d="M332.8,312.6c-1.3,0-2.6-0.4-3.7-1.3c-2.6-2.1-3-5.8-1-8.4l12.7-16c2.1-2.6,5.8-3,8.4-1c2.6,2.1,3,5.8,1,8.4l-12.7,16    C336.3,311.8,334.6,312.6,332.8,312.6z" style="fill: rgb(163, 231, 217);"/>
      <path d="M337.2,262.7c-0.8,0-1.7-0.2-2.5-0.5l-18.6-8.4c-3-1.4-4.4-4.9-3-7.9c1.4-3,4.9-4.4,7.9-3l18.6,8.4c3,1.4,4.4,4.9,3,7.9    C341.7,261.4,339.5,262.7,337.2,262.7z" style="fill: rgb(163, 231, 217);"/>
      <path d="M363,302.7c-9.2,0-17.8-3.6-24.3-10.1c-13.4-13.4-13.4-35.2,0-48.6c13.4-13.4,35.2-13.4,48.6,0c0,0,0,0,0,0    c13.4,13.4,13.4,35.2,0,48.6C380.8,299.1,372.2,302.7,363,302.7z M363,246c-5.7,0-11.4,2.2-15.8,6.5c-8.7,8.7-8.7,22.9,0,31.6    c4.2,4.2,9.8,6.5,15.8,6.5s11.6-2.3,15.8-6.5c8.7-8.7,8.7-22.9,0-31.6h0C374.5,248.2,368.8,246,363,246z" style="fill: rgb(163, 231, 217);"/>
      <path d="M323.8,338.6c-5.5,0-10.6-2.1-14.5-6c-8-8-8-21,0-29.1c8-8,21-8,29.1,0c3.9,3.9,6,9,6,14.5s-2.1,10.6-6,14.5    C334.4,336.4,329.3,338.6,323.8,338.6z M323.8,309.5c-2.2,0-4.4,0.8-6,2.5c-3.3,3.3-3.3,8.8,0,12.1c1.6,1.6,3.8,2.5,6,2.5    s4.4-0.9,6-2.5c1.6-1.6,2.5-3.8,2.5-6s-0.9-4.4-2.5-6C328.1,310.3,326,309.5,323.8,309.5z" style="fill: rgb(163, 231, 217);"/>
      <path d="M305.3,262.8c-3.7,0-7.3-1-10.6-3c-4.7-2.8-8-7.3-9.3-12.7s-0.5-10.9,2.3-15.6c2.8-4.7,7.3-8,12.6-9.3    c5.3-1.3,10.9-0.5,15.6,2.3c9.7,5.8,12.8,18.5,7,28.2c-2.8,4.7-7.3,8-12.6,9.3C308.7,262.6,307,262.8,305.3,262.8z M305.4,233.7    c-0.7,0-1.4,0.1-2.1,0.3c-2.2,0.6-4.1,1.9-5.3,3.9c-1.2,2-1.5,4.3-1,6.5s1.9,4.1,3.9,5.3c2,1.2,4.3,1.5,6.5,1    c2.2-0.5,4.1-1.9,5.3-3.9l0,0c1.2-2,1.5-4.3,1-6.5s-1.9-4.1-3.9-5.3C308.4,234.1,306.9,233.7,305.4,233.7z" style="fill: rgb(163, 231, 217);"/>
      <path d="M357.2,225.9c-0.2,0-0.3,0-0.5,0c-5.5-0.1-10.6-2.4-14.4-6.4c-3.8-4-5.8-9.2-5.7-14.7c0.1-5.5,2.4-10.6,6.4-14.4    c4-3.8,9.2-5.8,14.7-5.7c11.3,0.3,20.3,9.7,20.1,21c-0.1,5.5-2.4,10.6-6.4,14.4C367.5,223.9,362.5,225.9,357.2,225.9z     M357.1,196.8c-4.6,0-8.4,3.7-8.5,8.3c-0.1,4.7,3.6,8.6,8.3,8.7c0.1,0,0.1,0,0.2,0c4.6,0,8.4-3.7,8.5-8.3c0.1-4.7-3.6-8.6-8.3-8.7    C357.3,196.8,357.2,196.8,357.1,196.8z" style="fill: rgb(163, 231, 217);"/>
      <path d="M425.4,299.5c-1.9,0-3.8-0.3-5.8-0.8c-5.3-1.5-9.6-5-12.3-9.9c-2.6-4.8-3.2-10.4-1.7-15.6v0c3.2-10.9,14.6-17.1,25.5-14    c5.3,1.5,9.6,5,12.3,9.9c2.6,4.8,3.2,10.4,1.7,15.6C442.5,293.7,434.3,299.5,425.4,299.5z M417.2,276.6c-1.3,4.5,1.3,9.3,5.8,10.6    c4.5,1.3,9.3-1.3,10.6-5.8c0.6-2.2,0.4-4.5-0.7-6.5c-1.1-2-2.9-3.5-5.1-4.1C423.3,269.4,418.6,272,417.2,276.6L417.2,276.6z" style="fill: rgb(163, 231, 217);"/>
    </g>
  </g>
  <path stroke="rgb(255,0,0)" stroke-width="0" d="M 140.396 81.306 C 144.252 81.217 154.32 83.425 157.525 87.016 C 160.436 90.276 162.705 93.829 160.063 100.973 C 153.896 117.644 92.985 183.611 84.569 191.692 C 82.462 193.715 82.635 192.505 81.397 193.595 C 79.497 195.269 77.414 200.043 74.419 201.843 C 71.326 203.7 66.744 205.14 62.999 204.38 C 58.907 203.549 53.155 199.881 50.946 196.133 C 48.773 192.447 48.635 185.807 49.677 182.176 C 50.551 179.132 54.024 176.721 55.387 175.198 C 56.227 174.258 56.234 174.28 57.29 173.294 C 59.405 171.32 63.179 169.046 68.709 163.144 C 79.589 151.533 111.673 109.265 121.364 99.069 C 125.653 94.557 127.263 94.674 129.612 92.091 C 131.892 89.584 133.295 85.654 135.321 83.844 C 136.935 82.403 137.97 81.363 140.396 81.306 Z M 192.417 95.992 C 196.609 96.323 206.651 100.295 209.546 104.239 C 212.014 107.6 213.017 110.165 210.815 116.927 C 205.674 132.719 167.888 186.34 152.45 205.743 C 142.551 218.185 134.247 226.49 127.708 230.485 C 123.674 232.95 121.003 233.694 117.558 233.022 C 113.621 232.255 107.688 228.406 105.504 224.775 C 103.436 221.337 102.378 216.969 104.236 212.087 C 107.047 204.699 118.519 198.286 128.343 185.442 C 143.391 165.768 176.523 107.701 186.073 98.529 C 189.283 95.447 189.633 95.771 192.417 95.992 Z M 217.015 127.32 C 221.074 127.477 232.396 131.697 235.413 135.567 C 237.823 138.658 237.364 141.55 236.682 146.987 C 235.509 156.335 229.852 182.48 223.359 189.492 C 218.998 194.201 214.265 188.532 207.499 193.932 C 193.185 205.357 157.902 271.486 144.694 280.845 C 139.058 284.839 135.604 283.011 132.005 282.114 C 128.736 281.3 125.576 279.39 123.758 276.405 C 121.598 272.857 119.369 267.685 121.221 261.179 C 124.27 250.467 147.365 222.509 152.306 217.405 C 154.001 215.655 153.599 217.586 155.478 215.502 C 162.576 207.632 203.343 138.731 211.94 129.858 C 214.641 127.07 214.571 127.226 217.015 127.32 Z M 158.348 297.033 C 160.841 296.536 167.476 295.752 171.036 297.033 C 174.374 298.233 177.672 300.896 179.283 304.011 C 181.005 307.34 182.734 310.136 180.552 316.699 C 178.444 323.041 170.542 336.951 161.195 351.459 C 164.498 347.622 167.207 344.695 168.88 343.215 C 172.035 340.424 172.486 340.524 175.224 340.677 C 179.198 340.9 188.114 344.182 191.084 347.656 C 193.622 350.624 195.308 353.279 193.622 359.075 C 189.982 371.586 158.655 416.028 147.31 424.419 C 141.634 428.617 137.505 427.948 133.354 426.956 C 129.275 425.981 124.54 422.14 122.569 418.709 C 120.725 415.499 119.286 412.998 121.3 407.29 C 122.302 404.449 124.903 399.935 128.417 394.575 C 127.781 395.13 127.183 395.607 126.628 395.999 C 120.403 400.395 115.452 398.5 111.402 397.268 C 107.876 396.196 104.766 393.405 103.155 390.29 C 101.433 386.961 99.704 384.165 101.886 377.602 C 106.776 362.892 149.499 304.885 155.81 298.301 C 157.354 296.691 156.978 297.306 158.348 297.033 Z" style="stroke: rgb(129, 151, 57); stroke-width: 2px; fill-rule: nonzero; paint-order: stroke; fill: rgb(252, 113, 56); fill-opacity: 0.65;"/>
</svg>