<?xml version="1.0" encoding="utf-8"?>
<svg viewBox="0 0 110.746 77.925" x="0px" y="0px" xmlns="http://www.w3.org/2000/svg">
  <title>23-dna, science, molecule, genetic, helix</title>
  <g transform="matrix(1.963452, 0, 0, 1.807668, -9.254867, -18.987825)" style="">
    <path d="M42,32c0-4-1.17-9-10.32-12A19.85,19.85,0,0,1,21,12H12V52h9a19.85,19.85,0,0,1,10.73-8C40.83,41,42,36,42,32Zm-5,7H27a1,1,0,0,1,0-2H37a1,1,0,0,1,0,2Zm2-8a1,1,0,0,1,0,2H25a1,1,0,0,1,0-2Zm-2-6a1,1,0,0,1,0,2H27a1,1,0,0,1,0-2ZM29.2,43.93a1,1,0,0,1-.89.54,1,1,0,0,1-.46-.11C22.57,41.65,20,37.61,20,32s2.57-9.65,7.85-12.36a1,1,0,1,1,.92,1.78C24.09,23.82,22,27.08,22,32s2.09,8.18,6.77,10.58A1,1,0,0,1,29.2,43.93ZM52,12V52h-9a19,19,0,0,0-6.91-6.29,1,1,0,1,0-1,1.76A17.77,17.77,0,0,1,40.59,52H36a1,1,0,0,0,0-2H28a1,1,0,0,0,0,2H23.42a18.57,18.57,0,0,1,8.9-6C40.29,43.29,44,38.86,44,32S40.29,20.71,32.32,18.05A18.57,18.57,0,0,1,23.42,12H28a1,1,0,0,0,0,2h8a1,1,0,0,0,0-2h4.59a17.77,17.77,0,0,1-5.41,4.53,1,1,0,0,0-.4,1.36,1,1,0,0,0,.88.52,1,1,0,0,0,.48-.12A19,19,0,0,0,43.05,12Z" style="fill: rgb(190, 188, 180);"/>
  </g>
  <animate attributeName="opacity" values="0.4;1;1;1" begin="0.54s" dur="2s" fill="freeze" keyTimes="0; 0.591634; 1; 1" calcMode="spline" keySplines="0.42 0 0.58 1; 0.45 0 0.55 1; 0.45 0 0.55 1" repeatCount="indefinite"/>
</svg>