<?xml version="1.0" encoding="UTF-8" standalone="no"?>
<!-- Created with Pixodesk SVG (https://pixodesk.com) -->
<svg xmlns="http://www.w3.org/2000/svg" xmlns:pixodesk="https://pixodesk.com" viewBox="0 0 512 512" text-rendering="geometricPrecision" shape-rendering="geometricPrecision">
  <g vector-effect="fixed-position" transform="translate(496, 256)translate(-256, -256)">
    <g>
      <ellipse fill="#f99fb6" cx="221.679" cy="425.354" rx="8.44" ry="8.44"/>
      <ellipse fill="#f99fb6" cx="202.549" cy="92.835" rx="8.44" ry="8.44"/>
      <ellipse fill="#f56e92" cx="256" cy="256" rx="256" ry="256"/>
    </g>
    <ellipse fill="#fccfdb" transform="translate(-1, 0)" cx="256" cy="256" rx="222.242" ry="222.242"/>
    <g>
      <path fill="#f56e92" d="M320.708,368.093C301.133,379.42,278.758,385.406,256,385.406C251.339,385.406,247.56,389.184,247.56,393.846C247.56,398.508,251.339,402.286,256,402.286C281.722,402.286,307.02,395.514,329.161,382.703C333.196,380.369,334.575,375.206,332.239,371.172C329.906,367.137,324.74,365.757,320.708,368.093z"/>
      <path fill="#f56e92" d="M191.292,143.907C195.326,141.573,196.705,136.41,194.371,132.376C192.037,128.34,186.871,126.963,182.839,129.298C137.733,155.395,109.714,203.944,109.714,255.999C109.714,260.661,113.493,264.439,118.154,264.439C122.815,264.439,126.594,260.661,126.594,255.999C126.593,209.949,151.384,166.998,191.292,143.907z"/>
      <path fill="#f56e92" d="M140.624,128.689C137.328,125.394,131.984,125.394,128.689,128.689C106.305,151.074,90.176,178.98,82.047,209.395C80.843,213.898,83.518,218.523,88.021,219.728C88.751,219.923,89.484,220.016,90.205,220.016C93.933,220.016,97.345,217.526,98.353,213.754C105.717,186.203,120.334,160.916,140.623,140.627C143.92,137.329,143.92,131.986,140.624,128.689z"/>
      <path fill="#f56e92" d="M188.366,188.366C191.662,185.069,191.662,179.726,188.366,176.43C185.07,173.135,179.726,173.135,176.431,176.43C155.177,197.684,143.472,225.942,143.472,255.999C143.472,260.661,147.251,264.439,151.912,264.439C156.573,264.439,160.352,260.661,160.352,255.999C160.352,246.226,161.819,236.68,164.629,227.602L198.978,241.707L205.39,226.094L171.048,211.992C175.518,203.389,181.314,195.42,188.366,188.366z"/>
      <path fill="#f56e92" d="M335.568,323.634C332.273,320.339,326.929,320.338,323.633,323.635C319.705,327.563,315.451,331.12,310.941,334.29L287.224,293.206L272.607,301.646L296.331,342.742C291.327,345.075,286.123,346.983,280.768,348.413C276.265,349.617,273.59,354.243,274.793,358.746C275.801,362.52,279.213,365.008,282.941,365.008C283.662,365.008,284.396,364.915,285.125,364.72C304.138,359.638,321.579,349.558,335.568,335.569C338.865,332.272,338.865,326.928,335.568,323.634z"/>
      <g>
        <path fill="#ff7226" d="M168.716,395.899C164.043,395.899,159.33,394.45,155.294,391.444C142.082,381.607,130.395,369.92,120.557,356.708C113.134,346.739,115.198,332.639,125.167,325.217C135.135,317.792,149.234,319.857,156.659,329.827C163.886,339.531,172.47,348.116,182.173,355.341C192.143,362.764,194.207,376.863,186.784,386.833C182.368,392.766,175.585,395.899,168.716,395.899z"/>
        <path fill="#ff7226" d="M420.798,261.641C423.135,265.689,424.236,270.494,423.652,275.493C421.738,291.853,417.461,307.818,410.937,322.944C406.015,334.358,392.773,339.619,381.359,334.696C369.945,329.776,364.684,316.533,369.605,305.118C374.396,294.007,377.538,282.281,378.944,270.265C380.388,257.92,391.565,249.082,403.912,250.525C411.259,251.384,417.363,255.693,420.798,261.641z"/>
        <path fill="#ff7226" d="M343.284,116.101C347.957,116.101,352.67,117.55,356.706,120.556C369.918,130.393,381.605,142.08,391.443,155.292C398.866,165.261,396.802,179.361,386.833,186.783C376.865,194.208,362.766,192.143,355.341,182.173C348.114,172.469,339.53,163.884,329.827,156.659C319.857,149.236,317.793,135.137,325.216,125.167C329.632,119.234,336.416,116.101,343.284,116.101z"/>
      </g>
    </g>
    <ellipse fill="#ff9e46" cx="256" cy="111.267" rx="22.505" ry="22.505"/>
    <ellipse fill="#f23e6d" cx="256" cy="256" rx="70.33" ry="70.33"/>
  </g>
</svg>