<?xml version="1.0" encoding="UTF-8" standalone="no"?>
<!-- Created with Pixodesk SVG (https://pixodesk.com) -->
<svg xmlns="http://www.w3.org/2000/svg" xmlns:pixodesk="https://pixodesk.com" viewBox="0 0 128 128" text-rendering="geometricPrecision" shape-rendering="geometricPrecision">
  <path fill="#8c8c8c" d="M15.87,60.07C22.98,52.96,31.4,51.52,39.81,51.48C34.88,53.17,31.22,56.71,27.75,61.69C18.61,74.81,23.63,95,26.88,106.77C28.42,112.35,30.01,118.17,30.92,124L14.58,124C13.84,120.13,12.73,115.85,11.4,111.04C6.82,94.4,1.34,74.6,15.87,60.07z"/>
  <path fill="#8c8c8c" d="M116.69,16.96C121.27,33.6,126.47,52.45,111.94,66.98C110.09,68.83,107.72,70.69,105.44,72.05C102.38,73.87,99.73,74.71,99.73,74.71C99.73,74.71,104.73,64.94,105.45,59.65C107.22,46.76,104.61,33.61,101.2,21.22C99.68,15.65,98.08,9.83,97.17,4L113.51,4C114.26,7.86,115.37,12.15,116.69,16.96z"/>
  <path fill="#8c8c8c" d="M72.37,27.41C64.98,34.8,67.2,45.34,71.74,61.82C75.43,75.22,82.43,94.57,67.01,102.77C62.15,105.35,53.94,104.15,48.46,104.64C49.94,104.51,54.53,101.6,55.64,100.49C63.03,93.1,60.81,82.56,56.27,66.08C51.69,49.44,46.49,30.59,61.02,16.06C75.55,1.53,94.41,6.73,111.04,11.31C115.85,12.64,120.14,13.74,124,14.49L124,30.83C118.17,29.92,112.35,28.32,106.77,26.79C90.29,22.25,79.76,20.02,72.37,27.41z"/>
  <path fill="#f9a825" d="M34.3,113.48C35.6,114.78,35.6,117.05,34.3,118.35C33.6565,118.9963,32.782,119.3597,31.87,119.3597C30.958,119.3597,30.0835,118.9963,29.44,118.35L20.84,107.17L25.12,102.89L34.3,113.48z"/>
  <path fill="#f9a825" d="M13.05,92.47C14.36,91.49,16.3,92.84,16.95,93.49L25.12,102.9L20.84,107.18L12.68,96.58C12.02,95.92,11.12,93.91,13.05,92.47z"/>
  <path fill="#f9a825" d="M50.87,110.89C52.2102,112.2367,52.2102,114.4133,50.87,115.76C50.22,116.41,49.36,116.77,48.44,116.77C47.52,116.77,46.66,116.41,46.01,115.76L29.2,98.8L33.39,94.61L50.87,110.89z"/>
  <path fill="#f9a825" d="M12.25,77.96C13.68,76.71,15.83,78.15,17.17,79.49L33.39,94.61L29.2,98.8L13.09,82.55C11.86,81.27,10.59,79.4,12.25,77.96z"/>
  <path fill="#f9a825" d="M60.45,101.31C61.75,102.61,61.75,104.88,60.45,106.18C59.1033,107.5202,56.9267,107.5202,55.58,106.18L38.7,89.3L43.57,84.43L60.45,101.31z"/>
  <path fill="#f9a825" d="M14.82,64C14.82,63.08,15.18,62.22,15.83,61.56C17.1767,60.2198,19.3533,60.2198,20.7,61.56L43.57,84.43L38.7,89.3L15.83,66.43C15.182,65.7876,14.8182,64.9125,14.82,64z"/>
  <path fill="#f9a825" d="M67.71,88.18C69.01,89.48,69.7,91.62,68.4,92.92C68.4,92.92,66.42,94.39,65.08,93.05L49.21,78.79L53.49,74.51L67.71,88.18z"/>
  <path fill="#f9a825" d="M29.98,60C29.98,59.08,30.34,58.22,30.99,57.57C31.64,56.92,32.51,56.56,33.42,56.56C34.34,56.56,35.21,56.92,35.85,57.57L53.48,74.51L49.2,78.79L30.99,62.44C30.3417,61.7937,29.9781,60.9154,29.98,60z"/>
  <path fill="#f9a825" d="M67.81,73.79C69.11,75.09,69.91,76.96,69.1,77.96C68.29,78.96,66.57,79.25,64.53,77.17C63.73,76.35,60.9,73.46,57.75,70.25L61.88,66.12L67.81,73.79z"/>
  <path fill="#f9a825" d="M46.2,57.07C46.2,56.19,46.54,55.31,47.21,54.64C48.5567,53.2998,50.7333,53.2998,52.08,54.64L57.81,60.87L61.87,66.12L57.74,70.25C52.85,65.26,47.2,59.5,47.2,59.5C46.54,58.83,46.2,57.95,46.2,57.07z"/>
  <path fill="#f9a825" d="M82.19,65.59C83.5302,66.9367,83.5302,69.1133,82.19,70.46C80.8433,71.8002,78.6667,71.8002,77.32,70.46C77.32,70.46,72.78,65.21,68.17,59.83L72.3,55.7L82.19,65.59z"/>
  <path fill="#f9a825" d="M58.3,44.05C59.43,43.24,61,44.41,61.65,45.06L71.46,54.87L72.3,55.71L68.17,59.84C63.82,54.76,59.41,49.56,58.71,48.55C58.19,47.79,56.65,45.23,58.3,44.05z"/>
  <path fill="#f9a825" d="M98.76,63C100.06,64.3,100.06,66.57,98.76,67.87C97.4133,69.2102,95.2367,69.2102,93.89,67.87L77.56,50.44L81.87,46.13L98.76,63z"/>
  <path fill="#f9a825" d="M59.72,28.84C60.8,27.28,62.19,26.81,64.59,28.84L81.87,46.12L77.56,50.43L60.79,32.53C60.12,31.86,58.95,29.97,59.72,28.84z"/>
  <path fill="#f9a825" d="M108.34,53.43C109.6802,54.7767,109.6802,56.9533,108.34,58.3C106.9933,59.6402,104.8167,59.6402,103.47,58.3L86.62,41.38L91.49,36.51L108.34,53.43z"/>
  <path fill="#f9a825" d="M66.17,19.42C66.17,18.5,66.53,17.64,67.18,16.99C68.5267,15.6498,70.7033,15.6498,72.05,16.99L91.49,36.51L86.62,41.38L66.53,21.2C65.88,20.55,66.17,20.34,66.17,19.42z"/>
  <path fill="#f9a825" d="M111.55,37.25C114.04,39.65,115.37,41.39,114.55,42.73C113.61,44.27,112.2,44.62,108.95,41.98C107.65,40.92,102.53,36.28,96.88,31.11L101.1,26.89L111.55,37.25z"/>
  <path fill="#f9a825" d="M77.87,12.12C77.87,11.24,78.21,10.36,78.88,9.68C80.2267,8.3398,82.4033,8.3398,83.75,9.68L101.11,26.89L96.89,31.11C88.48,23.42,78.88,14.55,78.88,14.55C78.2337,13.9064,77.8703,13.032,77.87,12.12z"/>
  <path fill="#cac3cc" d="M66.31,100.24C71.75,97.55,74.83,93.11,76.52,88.18C76.47,96.59,74.09,104.73,66.98,111.84C52.45,126.37,33.59,121.18,16.96,116.59C12.15,115.26,7.86,114.16,4,113.41L4,97.07C9.83,97.98,15.65,99.58,21.23,101.11C33,104.36,52.81,106.93,66.31,100.24z"/>
  <g fill="#cac3cc">
    <path fill="#cac3cc" d="M67.54,21.53C59.4,22.6,53.29,28.26,53.29,28.26C53.29,28.26,54.13,25.62,55.95,22.55C57.31,20.27,59.17,17.91,61.02,16.05C75.55,1.52,94.41,6.72,111.04,11.3C115.85,12.63,120.14,13.73,124,14.48L124,30.82C118.17,29.91,112.35,28.31,106.77,26.78C94.39,23.37,80.45,19.84,67.54,21.53z"/>
  </g>
  <g fill="#cac3cc">
    <path fill="#cac3cc" d="M111.94,66.99C97.41,81.52,78.55,76.33,61.92,71.74C55.66,70.02,21.84,55.34,6.9,77.96C6.9,77.96,9.86,57.16,27.59,50.77C41.9,45.61,63.39,55.49,66.19,56.27C83.44,61.02,99.59,62.9,113.75,49.79C116.99,46.79,120.44,42.01,121.2,37.66C120.85,39.6,125.29,53.64,111.94,66.99z"/>
  </g>
</svg>