<?xml version="1.0" encoding="UTF-8" standalone="no"?>
<!-- Created with Pixodesk SVG (https://pixodesk.com) -->
<svg xmlns="http://www.w3.org/2000/svg" xmlns:pixodesk="https://pixodesk.com" viewBox="0 0 14 14" text-rendering="geometricPrecision" shape-rendering="geometricPrecision">
  <path fill="#ad145786" d="M9.0463,1C9.0463,3.79,7.5793,4.96,5.9166,6.34C4.1805,7.75,2.2,9.34,2.2,13L3.178,13C3.178,9.97,4.7674,8.68,6.4545,7.33C8.1172,5.98,10.0244,4.42,10.0244,1L9.0463,1z" style="pointer-events:none"/>
  <path fill="#ad1457" d="M9.0217,12.1L3.0222,12.1C2.8889,12.1,2.8,11.98,2.8,11.8C2.8,11.62,2.8889,11.5,3.0222,11.5L9.0217,11.5C9.155,11.5,9.2439,11.62,9.2439,11.8C9.2439,11.98,9.155,12.1,9.0217,12.1zM8.5773,10.9L3.2444,10.9C3.1111,10.9,3.0222,10.78,3.0222,10.6C3.0222,10.42,3.1111,10.3,3.2444,10.3L8.5773,10.3C8.7106,10.3,8.7995,10.42,8.7995,10.6C8.7995,10.78,8.7106,10.9,8.5773,10.9zM8.1329,9.7L3.6888,9.7C3.5555,9.7,3.4666,9.58,3.4666,9.4C3.4666,9.22,3.5555,9.1,3.6888,9.1L8.1329,9.1C8.2662,9.1,8.3551,9.22,8.3551,9.4C8.3551,9.58,8.2662,9.7,8.1329,9.7zM7.0219,8.5L4.7998,8.5C4.6665,8.5,4.5776,8.38,4.5776,8.2C4.5776,8.02,4.6665,7.9,4.7998,7.9L7.0219,7.9C7.1552,7.9,7.2441,8.02,7.2441,8.2C7.2441,8.38,7.1552,8.5,7.0219,8.5z" style="pointer-events:none"/>
  <path fill="#e91e63" d="M9.2939,2.5L2.7426,2.5C2.5971,2.5,2.5,2.38,2.5,2.2C2.5,2.02,2.5971,1.9,2.7426,1.9L9.2939,1.9C9.4395,1.9,9.5366,2.02,9.5366,2.2C9.5366,2.38,9.4395,2.5,9.2939,2.5zM9.0513,3.7L3.2279,3.7C3.0823,3.7,2.9853,3.58,2.9853,3.4C2.9853,3.22,3.0823,3.1,3.2279,3.1L9.0513,3.1C9.1969,3.1,9.2939,3.22,9.2939,3.4C9.2939,3.58,9.1969,3.7,9.0513,3.7zM8.566,4.9L3.7132,4.9C3.5676,4.9,3.4706,4.78,3.4706,4.6C3.4706,4.42,3.5676,4.3,3.7132,4.3L8.566,4.3C8.7116,4.3,8.8087,4.42,8.8087,4.6C8.8087,4.78,8.7116,4.9,8.566,4.9zM7.3528,6.1L4.9264,6.1C4.7808,6.1,4.6838,5.98,4.6838,5.8C4.6838,5.62,4.7808,5.5,4.9264,5.5L7.3528,5.5C7.4984,5.5,7.5955,5.62,7.5955,5.8C7.5955,5.98,7.4984,6.1,7.3528,6.1z" style="pointer-events:none"/>
  <path fill="#e91e63" d="M9.9756,13L9.0037,13C9.0037,9.97,7.4242,8.68,5.7476,7.33C4.0953,5.98,2.2,4.42,2.2,1L3.172,1C3.172,3.79,4.6299,4.96,6.2822,6.34C8.0074,7.75,9.9756,9.34,9.9756,13z" style="pointer-events:none"/>
</svg>