<?xml version="1.0" encoding="UTF-8" standalone="no"?>
<!-- Created with Pixodesk SVG (https://pixodesk.com) -->
<svg xmlns="http://www.w3.org/2000/svg" xmlns:pixodesk="https://pixodesk.com" viewBox="0 0 14 14" text-rendering="geometricPrecision" shape-rendering="geometricPrecision">
  <defs>
    <filter pixodesk:label="Gaussian Blur" x="-0.5" y="-0.5" width="2" height="2">
      <feGaussianBlur stdDeviation="3"/>
    </filter>
  </defs>
  <ellipse fill="none" stroke="#cac3cc" stroke-width="0.5" transform="translate(6.5488, 7.1463)" cx="0.3902" cy="-0.1829" rx="6.2561" ry="6.4268"/>
  <path fill="#ebb3675e" transform="translate(1, 0)" d="M8.3292,2C8.3292,4.3193,7.1768,5.292,5.8707,6.4391C4.507,7.6113,2.9512,8.933,2.9512,11.9756L3.7195,11.9756C3.7195,9.4568,4.968,8.3844,6.2933,7.2621C7.5994,6.1399,9.0976,4.843,9.0976,2L8.3292,2z" style="pointer-events:none"/>
  <path fill="#f9a825" transform="translate(1, 0)" d="M8.4281,11.3415L3.5231,11.3415C3.4141,11.3415,3.3415,11.2431,3.3415,11.0956C3.3415,10.9482,3.4141,10.8498,3.5231,10.8498L8.4281,10.8498C8.5371,10.8498,8.6098,10.9482,8.6098,11.0956C8.6098,11.2431,8.5371,11.3415,8.4281,11.3415zM8.0648,10.3582L3.7048,10.3582C3.5958,10.3582,3.5231,10.2599,3.5231,10.1124C3.5231,9.9649,3.5958,9.8666,3.7048,9.8666L8.0648,9.8666C8.1737,9.8666,8.2464,9.9649,8.2464,10.1124C8.2464,10.2599,8.1737,10.3582,8.0648,10.3582zM7.7014,9.3749L4.0681,9.3749C3.9591,9.3749,3.8865,9.2766,3.8865,9.1291C3.8865,8.9816,3.9591,8.8833,4.0681,8.8833L7.7014,8.8833C7.8104,8.8833,7.8831,8.9816,7.8831,9.1291C7.8831,9.2766,7.8104,9.3749,7.7014,9.3749zM6.7931,8.3916L4.9764,8.3916C4.8674,8.3916,4.7948,8.2933,4.7948,8.1458C4.7948,7.9983,4.8674,7.9,4.9764,7.9L6.7931,7.9C6.9021,7.9,6.9748,7.9983,6.9748,8.1458C6.9748,8.2933,6.9021,8.3916,6.7931,8.3916z" style="pointer-events:none"/>
  <path fill="#f9a825" transform="translate(1, 0)" d="M8.4541,3.1293L3.5946,3.1293C3.4867,3.1293,3.4146,3.0302,3.4146,2.8817C3.4146,2.7332,3.4867,2.6341,3.5946,2.6341L8.4541,2.6341C8.5621,2.6341,8.6341,2.7332,8.6341,2.8817C8.6341,3.0302,8.5621,3.1293,8.4541,3.1293zM8.2742,4.1195L3.9546,4.1195C3.8466,4.1195,3.7746,4.0205,3.7746,3.872C3.7746,3.7234,3.8466,3.6244,3.9546,3.6244L8.2742,3.6244C8.3822,3.6244,8.4541,3.7234,8.4541,3.872C8.4541,4.0205,8.3822,4.1195,8.2742,4.1195zM7.9142,5.1098L4.3145,5.1098C4.2065,5.1098,4.1346,5.0107,4.1346,4.8622C4.1346,4.7137,4.2065,4.6146,4.3145,4.6146L7.9142,4.6146C8.0222,4.6146,8.0942,4.7137,8.0942,4.8622C8.0942,5.0107,8.0222,5.1098,7.9142,5.1098zM7.0143,6.1L5.2145,6.1C5.1065,6.1,5.0345,6.001,5.0345,5.8524C5.0345,5.7039,5.1065,5.6049,5.2145,5.6049L7.0143,5.6049C7.1223,5.6049,7.1943,5.7039,7.1943,5.8524C7.1943,6.001,7.1223,6.1,7.0143,6.1z" style="pointer-events:none"/>
  <path fill="#f69f37" transform="translate(1, 0)" d="M9.0732,12L8.3171,12C8.3171,9.475,7.0884,8.4,5.7841,7.275C4.4988,6.15,3.0244,4.85,3.0244,2L3.7805,2C3.7805,4.325,4.9147,5.3,6.2,6.45C7.5421,7.625,9.0732,8.95,9.0732,12z" style="pointer-events:none"/>
</svg>