<?xml version="1.0" encoding="UTF-8" standalone="no"?>
<!-- Created with Pixodesk SVG (https://pixodesk.com) -->
<svg xmlns="http://www.w3.org/2000/svg" xmlns:pixodesk="https://pixodesk.com" viewBox="0 0 24 24" text-rendering="geometricPrecision" shape-rendering="geometricPrecision" fill="none">
  <path fill="#626262" fill-rule="evenodd" d="M11.25,2C11.25,1.5858,11.5858,1.25,12,1.25C17.9371,1.25,22.75,6.0629,22.75,12C22.75,17.9371,17.9371,22.75,12,22.75C6.0629,22.75,1.25,17.9371,1.25,12C1.25,11.5858,1.5858,11.25,2,11.25C2.4142,11.25,2.75,11.5858,2.75,12C2.75,17.1086,6.8914,21.25,12,21.25C17.1086,21.25,21.25,17.1086,21.25,12C21.25,6.8914,17.1086,2.75,12,2.75C11.5858,2.75,11.25,2.4142,11.25,2z"/>
  <path fill="#676f94" fill-rule="evenodd" opacity="0.5" d="M9.1001,2.3981C9.2493,2.7845,9.057,3.2187,8.6705,3.3678C8.5291,3.4224,8.3893,3.4804,8.2513,3.5417C7.8727,3.7098,7.4296,3.5391,7.2615,3.1605C7.0935,2.7819,7.2641,2.3388,7.6427,2.1707C7.8032,2.0995,7.9658,2.032,8.1303,1.9685C8.5168,1.8193,8.951,2.0117,9.1001,2.3981zM5.6482,4.2408C5.9339,4.5408,5.9223,5.0155,5.6224,5.3011C5.5127,5.4056,5.4056,5.5127,5.3011,5.6224C5.0155,5.9223,4.5408,5.9339,4.2408,5.6482C3.9409,5.3626,3.9293,4.8879,4.2149,4.5879C4.3362,4.4606,4.4606,4.3362,4.5879,4.2149C4.8879,3.9293,5.3626,3.9409,5.6482,4.2408zM3.1605,7.2615C3.5391,7.4296,3.7098,7.8728,3.5417,8.2513C3.4804,8.3893,3.4224,8.5291,3.3678,8.6705C3.2187,9.057,2.7845,9.2493,2.3981,9.1001C2.0117,8.951,1.8193,8.5168,1.9685,8.1303C2.032,7.9658,2.0995,7.8032,2.1707,7.6427C2.3388,7.2641,2.7819,7.0935,3.1605,7.2615z"/>
  <path fill="#676f94" opacity="0.5" d="M12,8.25C12.4142,8.25,12.75,8.5858,12.75,9L12.75,12.25L16,12.25C16.4142,12.25,16.75,12.5858,16.75,13C16.75,13.4142,16.4142,13.75,16,13.75L12,13.75C11.5858,13.75,11.25,13.4142,11.25,13L11.25,9C11.25,8.5858,11.5858,8.25,12,8.25z"/>
</svg>