<?xml version="1.0" encoding="UTF-8" standalone="no"?>
<!-- Created with Pixodesk SVG (https://pixodesk.com) -->
<svg xmlns="http://www.w3.org/2000/svg" xmlns:pixodesk="https://pixodesk.com" viewBox="0 0 225.828 225.828" text-rendering="geometricPrecision" shape-rendering="geometricPrecision">
  <g>
    <path fill="#ad1457" d="M211.278,43.78C203.243,43.78,196.704,50.314,196.704,58.345C196.704,60.76,197.315,63.155,198.477,65.289C197.879,66.536,196.952,67.853,195.899,68.939C194.823,70.053,193.51,71.042,192.27,71.676C190.53,70.876,188.69,70.471,186.799,70.471C182.147,70.471,177.824,72.964,175.457,76.995C174.082,77.137,172.451,77.043,170.98,76.738C169.636,76.458,168.273,75.971,167.107,75.36C167.166,74.649,167.193,73.936,167.193,73.236C167.193,58.931,155.554,47.295,141.248,47.295C126.949,47.295,115.314,58.933,115.314,73.236C115.314,83.016,120.96,92.09,129.728,96.456C129.484,98.439,128.894,100.781,128.089,102.942C127.224,105.264,126.044,107.568,124.851,109.268C124.726,109.448,124.605,109.617,124.488,109.777C124.156,109.754,123.822,109.734,123.48,109.734C114.443,109.734,107.091,117.085,107.091,126.118C107.091,126.614,107.119,127.141,107.179,127.722C105.197,128.611,102.656,129.398,100.154,129.896C97.556,130.414,94.768,130.664,92.536,130.564C92.17,130.55,91.827,130.529,91.506,130.501C88.549,125.73,83.277,122.774,77.685,122.774C75.847,122.774,74.022,123.096,72.255,123.731C71.51,123.034,70.819,122.176,70.292,121.293C69.743,120.367,69.309,119.303,69.055,118.266C72.326,115.153,74.198,110.823,74.198,106.339C74.198,101.209,71.863,96.483,67.781,93.327C67.907,91.647,68.397,89.644,69.129,87.819C69.87,85.976,70.916,84.173,72.002,82.863C72.337,82.888,72.676,82.906,73.027,82.906C81.074,82.906,87.622,76.373,87.622,68.342C87.622,60.306,81.074,53.769,73.027,53.769C65.013,53.769,58.494,60.307,58.494,68.342C58.494,72.797,60.49,76.928,63.98,79.719C63.852,81.393,63.363,83.39,62.633,85.211C61.928,86.964,60.947,88.682,59.869,90.028C59.078,89.921,58.39,89.87,57.722,89.87C50.181,89.87,43.661,94.938,41.783,102.229L41.761,102.239C40.286,102.875,38.37,103.321,36.505,103.467C34.752,103.603,32.946,103.476,31.471,103.145C29.241,96.565,23.127,92.165,16.169,92.165C7.253,92.165,0,99.418,0,108.333C0,117.252,7.253,124.508,16.169,124.508C23.831,124.508,30.44,119.092,31.985,111.591C33.43,111.001,35.26,110.586,37.046,110.445C38.723,110.315,40.408,110.424,41.859,110.727C43.833,117.863,50.311,122.818,57.722,122.818C59.175,122.818,60.638,122.619,62.073,122.222C62.915,122.956,63.692,123.888,64.278,124.868C64.897,125.911,65.359,127.1,65.591,128.243C62.943,131.225,61.487,135.036,61.487,139.001C61.487,147.94,68.753,155.216,77.684,155.216C86.587,155.216,93.842,148.04,93.941,139.185C94.034,139.14,94.129,139.097,94.227,139.05C96.246,138.112,98.903,137.277,101.517,136.755C104.115,136.241,106.906,135.991,109.135,136.089C109.664,136.109,110.147,136.144,110.58,136.187C113.72,140.208,118.412,142.507,123.48,142.507C125.642,142.507,127.751,142.085,129.751,141.249C129.917,141.353,130.087,141.464,130.265,141.585C131.925,142.7,133.775,144.37,135.337,146.169C136.896,147.968,138.288,150.032,139.163,151.841C139.226,151.966,139.284,152.091,139.341,152.212C137.136,155.407,135.972,159.128,135.972,162.991C135.972,173.499,144.519,182.048,155.027,182.048C165.537,182.048,174.086,173.499,174.086,162.991C174.086,152.483,165.537,143.934,155.027,143.934C151.843,143.934,148.689,144.747,145.884,146.289C145.821,146.25,145.759,146.207,145.696,146.164C144.036,145.049,142.184,143.377,140.626,141.58C139.065,139.781,137.673,137.717,136.802,135.908C136.771,135.845,136.741,135.785,136.712,135.724C138.769,132.898,139.855,129.579,139.855,126.109C139.855,120.793,137.267,115.812,132.921,112.733C132.933,112.587,132.946,112.435,132.964,112.279C133.173,110.216,133.788,107.7,134.652,105.38C135.515,103.06,136.697,100.755,137.888,99.056L137.972,98.938C139.077,99.08,140.177,99.15,141.247,99.15C148.188,99.15,154.716,96.446,159.624,91.533C162.007,89.145,163.87,86.383,165.165,83.318C166.522,83.19,168.116,83.285,169.55,83.583C171.007,83.888,172.511,84.441,173.716,85.116C174.441,91.724,180.138,96.865,186.798,96.865C187.068,96.865,187.339,96.85,187.607,96.832C188.378,97.92,189.039,99.238,189.482,100.574C189.957,102.015,190.218,103.607,190.214,104.983C187.009,107.414,185.101,111.221,185.101,115.224C185.101,122.308,190.847,128.07,197.912,128.07C204.986,128.07,210.744,122.308,210.744,115.224C210.744,108.248,205.137,102.543,198.189,102.394C197.355,101.286,196.609,99.836,196.126,98.382C195.612,96.82,195.347,95.111,195.394,93.676C198.324,91.16,199.998,87.53,199.998,83.676C199.998,81.488,199.441,79.317,198.391,77.385C198.993,76.156,199.909,74.864,200.936,73.8C201.95,72.754,203.194,71.804,204.385,71.164C206.504,72.306,208.883,72.909,211.281,72.909C219.301,72.909,225.828,66.373,225.828,58.34C225.827,50.314,219.302,43.78,211.278,43.78zM211.278,65.915C207.1,65.915,203.704,62.519,203.704,58.346C203.704,54.175,207.1,50.781,211.28,50.781C215.44,50.781,218.827,54.176,218.827,58.346C218.827,62.519,215.44,65.915,211.278,65.915zM186.802,77.474C190.218,77.474,192.997,80.26,192.997,83.684C192.997,87.098,190.218,89.875,186.802,89.875C183.402,89.875,180.636,87.098,180.636,83.684C180.636,80.258,183.399,77.474,186.802,77.474zM197.913,121.074C194.71,121.074,192.102,118.453,192.102,115.228C192.102,112.011,194.707,109.394,197.913,109.394C201.128,109.394,203.745,112.011,203.745,115.228C203.745,118.453,201.128,121.074,197.913,121.074zM123.483,116.736C128.651,116.736,132.856,120.945,132.856,126.121C132.856,131.301,128.651,135.516,123.483,135.516C118.305,135.516,114.092,131.301,114.092,126.121C114.095,120.945,118.308,116.736,123.483,116.736zM141.251,92.161C130.813,92.161,122.317,83.673,122.317,73.239C122.317,62.795,130.811,54.298,141.251,54.298C151.698,54.298,160.198,62.797,160.198,73.244C160.204,78.282,158.241,83.024,154.675,86.597C151.091,90.185,146.323,92.161,141.251,92.161zM57.727,96.874C62.952,96.874,67.203,101.122,67.203,106.343C67.203,111.571,62.952,115.822,57.727,115.822C52.501,115.822,48.25,111.571,48.25,106.343C48.248,101.122,52.499,96.874,57.727,96.874zM73.029,60.772C77.217,60.772,80.624,64.169,80.624,68.345C80.624,72.516,77.215,75.91,73.017,75.91C68.87,75.91,65.496,72.515,65.496,68.345C65.498,64.17,68.875,60.772,73.029,60.772zM77.687,148.223C72.616,148.223,68.49,144.088,68.49,139.008C68.49,133.918,72.616,129.779,77.687,129.779C82.791,129.779,86.945,133.92,86.945,139.008C86.945,144.088,82.792,148.223,77.687,148.223zM16.171,117.512C11.115,117.512,7.002,113.396,7.002,108.337C7.002,103.281,11.115,99.169,16.171,99.169C21.222,99.169,25.332,103.279,25.332,108.333C25.328,113.393,21.219,117.512,16.171,117.512zM155.032,175.055C148.386,175.055,142.975,169.647,142.975,162.998C142.975,156.352,148.383,150.941,155.032,150.941C161.678,150.941,167.089,156.349,167.089,162.998C167.089,169.647,161.681,175.055,155.032,175.055z"/>
  </g>
</svg>