<?xml version="1.0" encoding="UTF-8" standalone="no"?>
<!-- Created with Pixodesk SVG (https://pixodesk.com) -->
<svg xmlns="http://www.w3.org/2000/svg" xmlns:pixodesk="https://pixodesk.com" viewBox="0 0 496 496" text-rendering="geometricPrecision" shape-rendering="geometricPrecision" fill="#000000">
  <g fill="#9ed839">
    <g>
      <g>
        <path fill="#f9a825" d="M259.2,326.4C251.976,336.024,248,347.952,248,360C248,390.872,273.128,416,304,416C334.872,416,360,390.872,360,360C360,347.952,356.024,336.024,348.8,326.408L304,266.664L259.2,326.4zM344,360C344,382.056,326.056,400,304,400C281.944,400,264,382.056,264,360C264,351.4,266.84,342.872,272,336L304,293.336L336,336.008C341.16,342.872,344,351.4,344,360z"/>
        <path fill="#f9a825" d="M252.8,158.408L208,98.664L163.2,158.4C155.976,168.024,152,179.952,152,192C152,222.872,177.128,248,208,248C238.872,248,264,222.872,264,192C264,179.952,260.024,168.024,252.8,158.408zM208,232C185.944,232,168,214.056,168,192C168,183.4,170.84,174.872,176,168L208,125.336L240,168.008C245.16,174.872,248,183.4,248,192C248,214.056,230.056,232,208,232z"/>
        <path fill="#8c8c8c" d="M464,216C446.352,216,432,230.352,432,248C432,251.64,432.744,255.088,433.864,258.352L399.944,278.704L312,227.408L312,124.592L408,68.592L408,0L392,0L392,59.408L304,110.744L216,59.408L216,0L200,0L200,59.408L112.144,110.656L62.904,79.88C63.552,77.344,64,74.736,64,72C64,54.352,49.648,40,32,40C14.352,40,0,54.352,0,72C0,89.648,14.352,104,32,104C41.144,104,49.352,100.096,55.192,93.928L104,124.432L104,227.408L11.968,281.088L20.032,294.92L112,241.256L156,266.92L200,292.584L200,395.4L119.448,442.384C113.6,436.04,105.296,432,96,432C78.352,432,64,446.352,64,464C64,481.648,78.352,496,96,496C113.648,496,128,481.648,128,464C128,461.408,127.608,458.92,127.024,456.504L208,409.264L296,460.592L296,496L312,496L312,460.592L350.76,437.976L400.04,409.232L452.032,438.944L459.968,425.056L408,395.36L408,292.528L442.704,271.704C448.376,276.808,455.792,280,464,280C481.648,280,496,265.648,496,248C496,230.352,481.648,216,464,216zM32,88C23.176,88,16,80.824,16,72C16,63.176,23.176,56,32,56C40.824,56,48,63.176,48,72C48,80.824,40.824,88,32,88zM96,480C87.176,480,80,472.824,80,464C80,455.176,87.176,448,96,448C104.824,448,112,455.176,112,464C112,472.824,104.824,480,96,480zM164,253.072L120,227.408L120,124.592L208,73.256L296,124.592L296,227.408L252,253.072L208,278.736L164,253.072zM392,395.408L342.648,424.2L304,446.744L216,395.408L216,292.592L260,266.928L304,241.264L392,292.6L392,395.408zM464,264C455.176,264,448,256.824,448,248C448,239.176,455.176,232,464,232C472.824,232,480,239.176,480,248C480,256.824,472.824,264,464,264z"/>
        <rect fill="#2e5ee6" x="424" y="168" width="16" height="16"/>
        <rect x="392" y="168" width="16" height="16"/>
        <rect fill="#f9a825" x="360" y="168" width="16" height="16"/>
        <rect x="136" y="336" width="16" height="16"/>
        <rect fill="#2e5ee6" x="104" y="336" width="16" height="16"/>
        <rect fill="#f9a825" x="72" y="336" width="16" height="16"/>
      </g>
    </g>
  </g>
</svg>