<?xml version="1.0" encoding="UTF-8" standalone="no"?>
<!-- Created with Pixodesk SVG (https://pixodesk.com) -->
<svg xmlns="http://www.w3.org/2000/svg" xmlns:pixodesk="https://pixodesk.com" viewBox="0 0 24 24" text-rendering="geometricPrecision" shape-rendering="geometricPrecision" fill="none">
  <path fill="#585858c5" d="M7,5C5.3431,5,4,6.3431,4,8L4,16C4,17.6569,5.3431,19,7,19L17,19C18.6569,19,20,17.6569,20,16L20,12.5C20,11.9477,20.4477,11.5,21,11.5C21.5523,11.5,22,11.9477,22,12.5L22,16C22,18.7614,19.7614,21,17,21L7,21C4.2386,21,2,18.7614,2,16L2,8C2,5.2386,4.2386,3,7,3L10.5,3C11.0523,3,11.5,3.4477,11.5,4C11.5,4.5523,11.0523,5,10.5,5L7,5z"/>
  <path fill="#303030" fill-rule="evenodd" d="M18.8431,3.5858C18.0621,2.8047,16.7957,2.8047,16.0147,3.5858L11.6806,7.9199L11.0148,11.9455C10.8917,12.6897,11.537,13.3342,12.281,13.21L16.3011,12.5394L20.6347,8.2058C21.4158,7.4248,21.4158,6.1584,20.6347,5.3774L18.8431,3.5858zM13.1933,11.0302L13.5489,8.8799L17.4289,5L19.2205,6.7916L15.34,10.6721L13.1933,11.0302z"/>
</svg>