<?xml version="1.0" encoding="UTF-8" standalone="no"?>
<!-- Created with Pixodesk SVG (https://pixodesk.com) -->
<svg xmlns="http://www.w3.org/2000/svg" xmlns:pixodesk="https://pixodesk.com" viewBox="0 0 24 24" text-rendering="geometricPrecision" shape-rendering="geometricPrecision" fill="none">
  <path fill="#d7080b" opacity="0.4" d="M21.0802,8.58L21.0802,15.42C21.0802,16.54,20.4802,17.58,19.5102,18.15L13.5702,21.58C12.6002,22.14,11.4002,22.14,10.4202,21.58L4.4802,18.15C3.5102,17.59,2.9102,16.55,2.9102,15.42L2.9102,8.58C2.9102,7.46,3.5102,6.42,4.4802,5.85L10.4202,2.42C11.3902,1.86,12.5902,1.86,13.5702,2.42L19.5102,5.85C20.4802,6.42,21.0802,7.45,21.0802,8.58z"/>
  <path fill="#292d32" d="M12,13.75C11.59,13.75,11.25,13.41,11.25,13L11.25,7.75C11.25,7.34,11.59,7,12,7C12.41,7,12.75,7.34,12.75,7.75L12.75,13C12.75,13.41,12.41,13.75,12,13.75z"/>
  <path fill="#292d32" d="M12,17.2499C11.87,17.2499,11.74,17.2198,11.62,17.1698C11.49,17.1198,11.39,17.0499,11.29,16.9599C11.2,16.8599,11.13,16.7499,11.07,16.6299C11.02,16.5099,11,16.3799,11,16.2499C11,15.9899,11.1,15.7298,11.29,15.5398C11.39,15.4498,11.49,15.3799,11.62,15.3299C11.99,15.1699,12.43,15.2598,12.71,15.5398C12.8,15.6398,12.87,15.7399,12.92,15.8699C12.97,15.9899,13,16.1199,13,16.2499C13,16.3799,12.97,16.5099,12.92,16.6299C12.87,16.7499,12.8,16.8599,12.71,16.9599C12.52,17.1499,12.27,17.2499,12,17.2499z"/>
</svg>