<?xml version="1.0" encoding="UTF-8" standalone="no"?>
<!-- Created with Pixodesk SVG (https://pixodesk.com) -->
<svg xmlns="http://www.w3.org/2000/svg" xmlns:pixodesk="https://pixodesk.com" viewBox="0 0 400 400" text-rendering="geometricPrecision" shape-rendering="geometricPrecision">
  <path fill="#1aaee3ce" stroke="none" transform="translate(53.6585, 123.5772)" d="M56.446,-14.6341C89.1986,-37.6307,118.7035,-47.9842,181.1847,-44.5993C243.6659,-41.2144,284.2276,-33.9059,310.1045,9.7561C335.9814,53.4181,334.4948,116.3763,293.3798,173.5192C252.2648,230.662,213.2404,251.5679,154.007,253.6585C94.7735,255.7491,46.3444,230.4961,17.4216,206.9686C-11.5012,183.4412,-25.8072,164.3206,-22.9965,138.676C-20.1858,113.0314,18.9957,103.8864,28.5714,83.6237C38.1471,63.361,47.3865,43.5833,40.4181,27.8746C33.4497,12.1658,23.6934,8.3624,56.446,-14.6341z"/>
  <path fill="#dcdcdc" transform="translate(193.2056, 69.2072)rotate(45)" d="M0,0L50,0L50,25L0,25L0,0zM0,62.5C0,55.5964,5.5964,50,12.5,50L50,50L50,75L12.5,75C5.5964,75,0,69.4036,0,62.5zM50,112.5C50,105.5964,55.5964,100,62.5,100L87.5,100C94.4036,100,100,105.5964,100,112.5L100,112.5C100,119.4036,94.4036,125,87.5,125L62.5,125C55.5964,125,50,119.4036,50,112.5zM50,50L100,50L100,75L50,75L50,50zM50,0L100,0L100,25L50,25L50,0zM100,0L150,0L150,25L100,25L100,0zM100,50L150,50L150,75L100,75L100,50zM150,150L187.5,150C194.4036,150,200,155.5964,200,162.5L200,162.5C200,169.4036,194.4036,175,187.5,175L150,175L150,150zM150,112.5C150,105.5964,155.5964,100,162.5,100L187.5,100C194.4036,100,200,105.5964,200,112.5L200,112.5C200,119.4036,194.4036,125,187.5,125L162.5,125C155.5964,125,150,119.4036,150,112.5zM150,50L187.5,50C194.4036,50,200,55.5964,200,62.5L200,62.5C200,69.4036,194.4036,75,187.5,75L150,75L150,50zM150,0L187.5,0C194.4036,0,200,5.5964,200,12.5L200,12.5C200,19.4036,194.4036,25,187.5,25L150,25L150,0zM0,162.5C0,155.5964,5.5964,150,12.5,150L150,150L150,175L12.5,175C5.5964,175,0,169.4036,0,162.5zM0,0L150,0L150,25L0,25L0,0z"/>
</svg>