<?xml version="1.0" encoding="UTF-8" standalone="no"?>
<!-- Created with Pixodesk SVG (https://pixodesk.com) -->
<svg xmlns="http://www.w3.org/2000/svg" xmlns:pixodesk="https://pixodesk.com" viewBox="0 0 400 400" text-rendering="geometricPrecision" shape-rendering="geometricPrecision" fill="none">
  <defs>
    <linearGradient id="15060" x1="-87.20689655172418" y1="146.58620689655172" x2="282.44827586206884" y2="23.82758620689654" gradientUnits="userSpaceOnUse">
      <stop offset="0%" stop-color="rgb(247,126,140)"/>
      <stop offset="83.37889522854097%" stop-color="rgba(217,30,50,0.6540084388185654)"/>
    </linearGradient>
  </defs>
  <path fill="url(#15060)" stroke="none" transform="translate(101, 61)" d="M10,-15C60.4274,-5.9946,207.3993,52.611,244,87C280.6007,121.389,265,128,265,128L249,142C249,142,232.4291,145.3919,222,144C211.5709,142.6081,200.7422,134.122,188,132C175.2578,129.878,252.7133,160.3228,264,175C275.2867,189.6772,270,198,270,198C270,198,268.8669,210.7978,264,216C259.1331,221.2022,252.8072,224.6402,242,225C231.1928,225.3598,203,212,203,212C203,212,221.6812,224.5853,223,231C224.3188,237.4147,230.0345,236.7241,229,252C227.9655,267.2759,204,256,204,256L172,248C172,248,130.999,233.9161,113,226C95.001,218.0839,85.7792,211.4621,64,201C42.2208,190.5379,-18,164,-18,164C-18,164,-64.4383,140.8052,-71,127C-77.5617,113.1948,-69,100,-69,100C-69,100,-62.7987,90.4776,-58,88C-53.2013,85.5224,-50.0065,84.9689,-42,86C-33.9935,87.0311,-12,98,-12,98C-12,98,-47.0786,70.2378,-56,59C-64.9214,47.7622,-70.5134,42.1237,-69,35C-67.4866,27.8763,-62.6905,27.2756,-56,25C-49.3095,22.7244,-30,25,-30,25L-4,35C-4,35,-25.8142,20.3262,-32,12C-38.1858,3.6738,-48.9041,-0.9679,-42,-12C-35.0959,-23.0321,-40.4274,-24.0054,10,-15z"/>
</svg>